<svg width="400" height="150" viewBox="0 0 400 150" fill="none" xmlns="http://www.w3.org/2000/svg">
<g opacity="0.7" filter="url(#filter0_f)">
<path d="M50 52C50 50.8954 50.8954 50 52 50H348C349.105 50 350 50.8954 350 52V98C350 99.1046 349.105 100 348 100H52C50.8954 100 50 99.1046 50 98V52Z" fill="#FEE040"/>
</g>
<rect x="30" y="20" width="340" height="70" rx="2" fill="#FFEB81"/>
<path d="M119.08 51.6H112.72V60H114.64V53.448H117.16V60H119.08V51.6ZM126.533 60.168C128.945 60.168 130.901 58.272 130.901 55.8C130.901 53.328 128.945 51.432 126.533 51.432C124.121 51.432 122.165 53.328 122.165 55.8C122.165 58.272 124.121 60.168 126.533 60.168ZM126.533 58.296C125.165 58.296 124.085 57.3 124.085 55.8C124.085 54.3 125.165 53.304 126.533 53.304C127.901 53.304 128.981 54.3 128.981 55.8C128.981 57.3 127.901 58.296 126.533 58.296ZM132.901 60C134.449 60.168 136.213 59.592 136.213 56.592V53.448H138.181V60H140.101V51.6H134.293V56.664C134.293 58.068 133.765 58.332 132.901 58.2V60ZM148.1 51.6L146.624 55.272L144.98 51.6H143.06L145.748 57.372C145.424 57.96 144.944 58.284 144.068 58.2V60C145.64 60.084 146.852 59.34 147.596 57.528L150.02 51.6H148.1ZM157.125 51.6V55.212C156.693 55.404 156.261 55.488 155.745 55.488C155.085 55.488 154.605 55.092 154.605 54.312V51.6H152.685V54.6C152.685 56.364 154.029 57.336 155.697 57.336C156.201 57.336 156.657 57.252 157.125 57.072V60H159.045V51.6H157.125ZM167.162 60H169.082V51.6H167.642L164.402 56.16V51.6H162.482V60H163.922L167.162 55.44V60ZM178.161 51.6H171.921V53.448H174.081V60H176.001V53.448H178.161V51.6ZM184.181 54.24H182.921V51.6H181.001V60H184.181C185.837 60 187.121 58.716 187.121 57.12C187.121 55.524 185.837 54.24 184.181 54.24ZM184.181 58.2H182.921V56.04H184.181C184.769 56.04 185.201 56.508 185.201 57.12C185.201 57.732 184.769 58.2 184.181 58.2ZM201.871 60L198.919 55.692L201.751 51.6H199.567L196.999 55.248V51.6H195.079V60H196.999V56.112L199.687 60H201.871ZM207.884 60.168C210.296 60.168 212.252 58.272 212.252 55.8C212.252 53.328 210.296 51.432 207.884 51.432C205.472 51.432 203.516 53.328 203.516 55.8C203.516 58.272 205.472 60.168 207.884 60.168ZM207.884 58.296C206.516 58.296 205.436 57.3 205.436 55.8C205.436 54.3 206.516 53.304 207.884 53.304C209.252 53.304 210.332 54.3 210.332 55.8C210.332 57.3 209.252 58.296 207.884 58.296ZM223.733 51.6H221.813L219.533 55.332L217.253 51.6H215.333V60H217.253V55.116L219.425 58.68H219.641L221.813 55.116V60H223.733V51.6ZM235.577 51.6H233.657L231.377 55.332L229.097 51.6H227.177V60H229.097V55.116L231.269 58.68H231.485L233.657 55.116V60H235.577V51.6ZM240.941 58.152V56.664H243.941V54.84H240.941V53.448H244.241V51.6H239.021V60H244.301V58.152H240.941ZM250.564 51.6H247.384V60H249.304V57.36H250.564C252.22 57.36 253.504 56.076 253.504 54.48C253.504 52.884 252.22 51.6 250.564 51.6ZM250.564 55.56H249.304V53.4H250.564C251.152 53.4 251.584 53.868 251.584 54.48C251.584 55.092 251.152 55.56 250.564 55.56ZM260.722 51.6V55.212C260.29 55.404 259.858 55.488 259.342 55.488C258.682 55.488 258.202 55.092 258.202 54.312V51.6H256.282V54.6C256.282 56.364 257.626 57.336 259.294 57.336C259.798 57.336 260.254 57.252 260.722 57.072V60H262.642V51.6H260.722ZM267.999 58.152V56.664H270.999V54.84H267.999V53.448H271.299V51.6H266.079V60H271.359V58.152H267.999ZM278.392 60.168C279.928 60.168 281.272 59.412 281.992 58.224L280.336 57.264C279.976 57.912 279.244 58.296 278.392 58.296C276.904 58.296 275.944 57.3 275.944 55.8C275.944 54.3 276.904 53.304 278.392 53.304C279.244 53.304 279.964 53.688 280.336 54.336L281.992 53.376C281.26 52.188 279.916 51.432 278.392 51.432C275.86 51.432 274.024 53.328 274.024 55.8C274.024 58.272 275.86 60.168 278.392 60.168ZM291.684 60L288.732 55.692L291.564 51.6H289.38L286.812 55.248V51.6H284.892V60H286.812V56.112L289.5 60H291.684ZM297.697 60.168C300.109 60.168 302.065 58.272 302.065 55.8C302.065 53.328 300.109 51.432 297.697 51.432C295.285 51.432 293.329 53.328 293.329 55.8C293.329 58.272 295.285 60.168 297.697 60.168ZM297.697 58.296C296.329 58.296 295.249 57.3 295.249 55.8C295.249 54.3 296.329 53.304 297.697 53.304C299.065 53.304 300.145 54.3 300.145 55.8C300.145 57.3 299.065 58.296 297.697 58.296ZM307.066 58.152V56.664H310.066V54.84H307.066V53.448H310.366V51.6H305.146V60H310.426V58.152H307.066Z" fill="black"/>
<path d="M93.0625 49.5H94.9375C95.0938 49.5 95.2266 49.5547 95.3359 49.6641C95.4453 49.7734 95.5 49.9062 95.5 50.0625V54H97.5625C97.7656 54 97.9062 54.1016 97.9844 54.3047C98.0625 54.4922 98.0312 54.6562 97.8906 54.7969L94.3281 58.3594C94.2344 58.4531 94.125 58.5 94 58.5C93.875 58.5 93.7656 58.4531 93.6719 58.3594L90.1094 54.7969C89.9688 54.6562 89.9375 54.4922 90.0156 54.3047C90.0938 54.1016 90.2344 54 90.4375 54H92.5V50.0625C92.5 49.9062 92.5547 49.7734 92.6641 49.6641C92.7734 49.5547 92.9062 49.5 93.0625 49.5ZM100 58.3125V60.9375C100 61.0938 99.9453 61.2266 99.8359 61.3359C99.7266 61.4453 99.5938 61.5 99.4375 61.5H88.5625C88.4062 61.5 88.2734 61.4453 88.1641 61.3359C88.0547 61.2266 88 61.0938 88 60.9375V58.3125C88 58.1562 88.0547 58.0234 88.1641 57.9141C88.2734 57.8047 88.4062 57.75 88.5625 57.75H92.0078L93.1562 58.8984C93.3906 59.1328 93.6719 59.25 94 59.25C94.3281 59.25 94.6094 59.1328 94.8438 58.8984L95.9922 57.75H99.4375C99.5938 57.75 99.7266 57.8047 99.8359 57.9141C99.9453 58.0234 100 58.1562 100 58.3125ZM96.9531 60.7031C97.0469 60.6094 97.0938 60.5 97.0938 60.375C97.0938 60.25 97.0469 60.1406 96.9531 60.0469C96.8594 59.9531 96.75 59.9062 96.625 59.9062C96.5 59.9062 96.3906 59.9531 96.2969 60.0469C96.2031 60.1406 96.1562 60.25 96.1562 60.375C96.1562 60.5 96.2031 60.6094 96.2969 60.7031C96.3906 60.7969 96.5 60.8438 96.625 60.8438C96.75 60.8438 96.8594 60.7969 96.9531 60.7031ZM98.4531 60.7031C98.5469 60.6094 98.5938 60.5 98.5938 60.375C98.5938 60.25 98.5469 60.1406 98.4531 60.0469C98.3594 59.9531 98.25 59.9062 98.125 59.9062C98 59.9062 97.8906 59.9531 97.7969 60.0469C97.7031 60.1406 97.6562 60.25 97.6562 60.375C97.6562 60.5 97.7031 60.6094 97.7969 60.7031C97.8906 60.7969 98 60.8438 98.125 60.8438C98.25 60.8438 98.3594 60.7969 98.4531 60.7031Z" fill="black"/>
<defs>
<filter id="filter0_f" x="0" y="0" width="400" height="150" filterUnits="userSpaceOnUse" color-interpolation-filters="sRGB">
<feFlood flood-opacity="0" result="BackgroundImageFix"/>
<feBlend mode="normal" in="SourceGraphic" in2="BackgroundImageFix" result="shape"/>
<feGaussianBlur stdDeviation="25" result="effect1_foregroundBlur"/>
</filter>
</defs>
</svg>
