<svg width="17" height="364" viewBox="0 0 17 364" fill="none" xmlns="http://www.w3.org/2000/svg">
<path d="M15 358.18V355.92L7.24 358.98L0.999999 355.92L0.999999 358.12L7.1 361H0.999999L0.999999 363.2H15V361H10.7L9.42 360.32L15 358.18ZM4.22 332.899C3.22 332.899 2.84 332.459 2.84 331.759C2.84 331.059 3.22 330.619 4.22 330.619H11.78C12.78 330.619 13.16 331.059 13.16 331.759C13.16 332.459 12.78 332.899 11.78 332.899H4.22ZM11.64 335.099C13.88 335.099 15.16 333.919 15.16 331.759C15.16 329.599 13.88 328.419 11.64 328.419H4.36C2.12 328.419 0.84 329.599 0.84 331.759C0.84 333.919 2.12 335.099 4.36 335.099H11.64ZM0.999999 303.949L0.999999 307.009H15V305.089H5.1L15 303.449V301.369L4.96 299.849H15V297.769H0.999999L0.999999 300.829L10.94 302.329L0.999999 303.949ZM0.999999 271.289L0.999999 274.509L15 276.749V274.729L12.46 274.349V271.649L15 271.269V269.049L0.999999 271.289ZM3.48 273.009L10.56 271.949V274.069L3.48 273.009ZM9 245.824V243.324H15V241.084H0.999999L0.999999 243.324H7V245.824H0.999999L0.999999 248.024H15V245.824H9ZM16.88 210.949H13.04V211.909H0.999999L0.999999 218.069L11.22 218.569C12.04 218.609 12.56 218.729 13.04 219.109V219.969H16.88L16.88 217.829H15V213.129H16.88V210.949ZM3 216.009L3 214.149H13.04V217.029C12.7 216.669 12.24 216.469 11.18 216.409L3 216.009ZM0.999999 184.843L0.999999 188.063L15 190.303V188.283L12.46 187.903V185.203L15 184.823V182.603L0.999999 184.843ZM3.48 186.563L10.56 185.503V187.623L3.48 186.563Z" fill="#2F80ED"/>
<rect x="6" width="2" height="140" fill="url(#paint0_linear)"/>
<defs>
<linearGradient id="paint0_linear" x1="7" y1="0" x2="7" y2="140" gradientUnits="userSpaceOnUse">
<stop stop-color="#FEE040" stop-opacity="0"/>
<stop offset="1" stop-color="#FEE040"/>
</linearGradient>
</defs>
</svg>
